<?xml version="1.0" encoding="iso-8859-1"?>
<!-- Generator: Adobe Illustrator 19.0.0, SVG Export Plug-In . SVG Version: 6.00 Build 0)  -->
<svg version="1.1" id="Capa_1" xmlns="http://www.w3.org/2000/svg" xmlns:xlink="http://www.w3.org/1999/xlink" x="0px" y="0px"
	 viewBox="0 0 512 512" style="enable-background:new 0 0 512 512;" xml:space="preserve">
<path style="fill:#CCDFED;" d="M193.938,105.475h-56.853c-2.322,0-4.205,1.883-4.205,4.205v44.568c0,2.322,1.883,4.205,4.205,4.205
	h56.853c2.322,0,4.205-1.883,4.205-4.205V109.68C198.144,107.358,196.261,105.475,193.938,105.475z"/>
<path style="fill:#E1EFFB;" d="M316.141,439.999h-201.61c-2.576,0-4.665-2.089-4.665-4.665V140.459c0-2.576,2.089-4.665,4.665-4.665
	h201.61c2.576,0,4.665,2.089,4.665,4.665v294.875C320.806,437.911,318.718,439.999,316.141,439.999z"/>
<g>
	<path style="fill:#21D8DE;" d="M286.003,322.88H136.099c-0.717,0-1.299-0.581-1.299-1.299v-22.734c0-0.717,0.581-1.299,1.299-1.299
		h149.905c0.717,0,1.299,0.581,1.299,1.299v22.734C287.302,322.299,286.72,322.88,286.003,322.88z"/>
	<path style="fill:#21D8DE;" d="M286.003,261.306H136.099c-0.717,0-1.299-0.581-1.299-1.299v-22.734
		c0-0.717,0.581-1.299,1.299-1.299h149.905c0.717,0,1.299,0.581,1.299,1.299v22.734C287.302,260.725,286.72,261.306,286.003,261.306
		z"/>
	<path style="fill:#21D8DE;" d="M286.003,199.732H136.099c-0.717,0-1.299-0.581-1.299-1.299V175.7c0-0.717,0.581-1.299,1.299-1.299
		h149.905c0.717,0,1.299,0.581,1.299,1.299v22.734C287.302,199.151,286.72,199.732,286.003,199.732z"/>
</g>
<path style="fill:#61AFF6;" d="M286.003,384.455H136.099c-0.717,0-1.299-0.581-1.299-1.299v-22.734c0-0.717,0.581-1.299,1.299-1.299
	h149.905c0.717,0,1.299,0.581,1.299,1.299v22.734C287.302,383.873,286.72,384.455,286.003,384.455z"/>
<rect x="228.66" y="6.793" style="fill:#CCDFED;" width="201.37" height="433.21"/>
<rect x="383.87" y="6.793" style="fill:#B0C8D6;" width="46.17" height="433.21"/>
<path style="fill:#E1EFFB;" d="M439.069,0H217.311c-1.302,0-2.357,1.055-2.357,2.357v19.306c0,1.302,1.055,2.357,2.357,2.357
	h221.758c1.302,0,2.357-1.055,2.357-2.357V2.357C441.426,1.055,440.371,0,439.069,0z"/>
<g>
	<path style="fill:#61AFF6;" d="M285.297,98.86h-29.601c-1.107,0-2.005-0.898-2.005-2.005v-35.52c0-1.107,0.898-2.005,2.005-2.005
		h29.601c1.107,0,2.005,0.898,2.005,2.005v35.52C287.302,97.962,286.404,98.86,285.297,98.86z"/>
	<path style="fill:#61AFF6;" d="M344.152,98.86h-29.601c-1.107,0-2.005-0.898-2.005-2.005v-35.52c0-1.107,0.898-2.005,2.005-2.005
		h29.601c1.107,0,2.005,0.898,2.005,2.005v35.52C346.157,97.962,345.259,98.86,344.152,98.86z"/>
	<path style="fill:#61AFF6;" d="M403.007,98.86h-29.601c-1.107,0-2.005-0.898-2.005-2.005v-35.52c0-1.107,0.898-2.005,2.005-2.005
		h29.601c1.107,0,2.005,0.898,2.005,2.005v35.52C405.012,97.962,404.114,98.86,403.007,98.86z"/>
	<path style="fill:#61AFF6;" d="M285.297,187.067h-29.601c-1.107,0-2.005-0.898-2.005-2.005v-35.52c0-1.107,0.898-2.005,2.005-2.005
		h29.601c1.107,0,2.005,0.898,2.005,2.005v35.52C287.302,186.169,286.404,187.067,285.297,187.067z"/>
	<path style="fill:#61AFF6;" d="M344.152,187.067h-29.601c-1.107,0-2.005-0.898-2.005-2.005v-35.52c0-1.107,0.898-2.005,2.005-2.005
		h29.601c1.107,0,2.005,0.898,2.005,2.005v35.52C346.157,186.169,345.259,187.067,344.152,187.067z"/>
	<path style="fill:#61AFF6;" d="M403.007,187.067h-29.601c-1.107,0-2.005-0.898-2.005-2.005v-35.52c0-1.107,0.898-2.005,2.005-2.005
		h29.601c1.107,0,2.005,0.898,2.005,2.005v35.52C405.012,186.169,404.114,187.067,403.007,187.067z"/>
	<path style="fill:#61AFF6;" d="M285.297,275.274h-29.601c-1.107,0-2.005-0.898-2.005-2.005v-35.52c0-1.107,0.898-2.005,2.005-2.005
		h29.601c1.107,0,2.005,0.898,2.005,2.005v35.52C287.302,274.376,286.404,275.274,285.297,275.274z"/>
	<path style="fill:#61AFF6;" d="M344.152,275.274h-29.601c-1.107,0-2.005-0.898-2.005-2.005v-35.52c0-1.107,0.898-2.005,2.005-2.005
		h29.601c1.107,0,2.005,0.898,2.005,2.005v35.52C346.157,274.376,345.259,275.274,344.152,275.274z"/>
	<path style="fill:#61AFF6;" d="M403.007,275.274h-29.601c-1.107,0-2.005-0.898-2.005-2.005v-35.52c0-1.107,0.898-2.005,2.005-2.005
		h29.601c1.107,0,2.005,0.898,2.005,2.005v35.52C405.012,274.376,404.114,275.274,403.007,275.274z"/>
	<path style="fill:#61AFF6;" d="M344.152,363.481h-29.601c-1.107,0-2.005-0.898-2.005-2.005v-35.52c0-1.107,0.898-2.005,2.005-2.005
		h29.601c1.107,0,2.005,0.898,2.005,2.005v35.52C346.157,362.583,345.259,363.481,344.152,363.481z"/>
	<path style="fill:#61AFF6;" d="M285.297,363.481h-29.601c-1.107,0-2.005-0.898-2.005-2.005v-35.52c0-1.107,0.898-2.005,2.005-2.005
		h29.601c1.107,0,2.005,0.898,2.005,2.005v35.52C287.302,362.583,286.404,363.481,285.297,363.481z"/>
	<path style="fill:#61AFF6;" d="M403.007,363.481h-29.601c-1.107,0-2.005-0.898-2.005-2.005v-35.52c0-1.107,0.898-2.005,2.005-2.005
		h29.601c1.107,0,2.005,0.898,2.005,2.005v35.52C405.012,362.583,404.114,363.481,403.007,363.481z"/>
</g>
<path style="fill:#FED9A8;" d="M462.459,347.858l-100.505,67.263l-29.953-1.681l-1.172-11.79
	c-1.745-17.55-15.258-31.634-32.72-34.105l-80.254-9.24c-18.513-2.62-36.338-8.823-52.476-18.264l0,0
	c-22.034-12.889-47.101-19.683-72.628-19.683H34.888v132.076l152.925,57.91c5.779,1.632,11.849,2.12,17.781,1.183
	c0.036-0.006,0.071-0.011,0.107-0.017l153.959-22.193c11.861-1.894,23.01-6.889,32.318-14.481l99.506-89.495
	c8.93-7.93,10.586-21.256,3.867-31.13l0,0C488.001,343.408,473.304,340.57,462.459,347.858z"/>
<g>
	<path style="fill:#F4C892;" d="M496.664,356.406l-98.354,82.791c-9.308,7.591-24.781,12.587-36.642,14.481l-155.967,11.149
		c-0.036,0.006-0.071,0.011-0.107,0.017c-5.932,0.937-12.002,0.449-17.781-1.183L34.888,405.75v46.684l152.925,57.91
		c2.89,0.816,5.852,1.346,8.833,1.555c0.745,0.052,1.492,0.084,2.239,0.096c2.241,0.035,4.485-0.116,6.709-0.468
		c0.036-0.006,0.071-0.011,0.107-0.017l153.959-22.193c3.707-0.592,7.344-1.487,10.877-2.669c0.707-0.237,1.409-0.484,2.107-0.744
		c3.49-1.296,6.869-2.878,10.103-4.727c0.647-0.37,1.288-0.751,1.923-1.142c2.54-1.565,4.982-3.301,7.309-5.199l99.506-89.495
		C499.77,377.985,501.78,365.987,496.664,356.406z"/>
	<path style="fill:#F4C892;" d="M343.663,414.115l-169.413-6.779c-0.809-0.032-1.596-0.27-2.287-0.691l-8.999-5.481
		c-4.376-2.666-2.031-9.415,3.056-8.793L343.663,414.115z"/>
</g>
<path style="fill:#2D5871;" d="M54.389,497.296H31.496c-10.474,0-18.964-8.491-18.964-18.964V308.914
	c0-10.474,8.491-18.964,18.964-18.964H54.39c10.474,0,18.964,8.491,18.964,18.964v169.418
	C73.353,488.806,64.863,497.296,54.389,497.296z"/>
<path style="fill:#CCDFED;" d="M439.069,0h-43.813v24.02h43.813c1.302,0,2.357-1.055,2.357-2.357V2.357
	C441.426,1.055,440.371,0,439.069,0z"/>
<path style="fill:#1D4859;" d="M54.389,289.95H42.943v207.347H54.39c10.474,0,18.964-8.49,18.964-18.964V308.914
	C73.353,298.44,64.863,289.95,54.389,289.95z"/>
<g>
</g>
<g>
</g>
<g>
</g>
<g>
</g>
<g>
</g>
<g>
</g>
<g>
</g>
<g>
</g>
<g>
</g>
<g>
</g>
<g>
</g>
<g>
</g>
<g>
</g>
<g>
</g>
<g>
</g>
</svg>
