<?xml version="1.0" encoding="iso-8859-1"?>
<!-- Generator: Adobe Illustrator 19.0.0, SVG Export Plug-In . SVG Version: 6.00 Build 0)  -->
<svg version="1.1" id="Capa_1" xmlns="http://www.w3.org/2000/svg" xmlns:xlink="http://www.w3.org/1999/xlink" x="0px" y="0px"
	 viewBox="0 0 512.001 512.001" style="enable-background:new 0 0 512.001 512.001;" xml:space="preserve">
<path style="fill:#FFB125;" d="M99.539,169.47l-42.598,0.059l-0.117-71.784c-0.003-2.008,1.623-3.639,3.631-3.641l35.326-0.049
	c2.008-0.003,3.639,1.623,3.641,3.631L99.539,169.47z"/>
<path style="fill:#FF901D;" d="M95.781,94.055L78.182,94.08v75.42l21.357-0.03l-0.117-71.784
	C99.419,95.678,97.789,94.053,95.781,94.055z"/>
<path style="fill:#E1EFFB;" d="M169.98,95.216L55.873,202.708l0.228,163.413c0.006,4.311,3.505,7.8,7.816,7.794l212.902-0.297
	c4.311-0.006,7.8-3.505,7.794-7.816l-0.228-163.413L169.98,95.216z"/>
<path style="fill:#CCDFED;" d="M284.386,202.389L169.98,95.216l-22.927,21.598l91.35,85.574l0.214,153.14l-174.698,0.244
	c-4.311,0.006-7.81-3.484-7.816-7.794L55.9,202.684l-0.025,0.024l0.228,163.413c0.006,4.311,3.505,7.801,7.816,7.794l212.902-0.297
	c4.311-0.006,7.8-3.505,7.794-7.816L284.386,202.389z"/>
<path style="fill:#FF4C4C;" d="M324.637,235.935c-3.852,0.005-7.713-1.399-10.746-4.24L169.982,96.885L26.451,232.097
	c-6.308,5.943-16.24,5.646-22.181-0.662c-5.943-6.307-5.646-16.239,0.662-22.181L159.193,63.935
	c6.031-5.682,15.441-5.695,21.487-0.03l154.666,144.888c6.325,5.924,6.649,15.855,0.724,22.179
	C332.986,234.263,328.817,235.929,324.637,235.935z"/>
<path style="fill:#2D5871;" d="M199.497,229.933l-58.659,0.082c-2.752,0.004-4.98,2.238-4.977,4.99l0.194,138.81l68.626-0.096
	l-0.194-138.81C204.484,232.157,202.25,229.929,199.497,229.933z"/>
<path style="fill:#1D4859;" d="M199.497,229.933l-29.254,0.041v143.793l34.438-0.048l-0.194-138.81
	C204.484,232.157,202.25,229.929,199.497,229.933z"/>
<g>
	<path style="fill:#FED9A8;" d="M231.877,192.921h10.489v4.064c0,22.061,16.336,47.13,36.555,59.446l-0.002,20.387
		c0,1.914-1.248,3.605-3.077,4.169l-25.72,12.918l3.361,3.366c33.263,33.314,87.693,33.314,120.956,0l3.358-3.363l-25.739-12.92
		c-1.829-0.565-3.077-2.255-3.077-4.169l-0.002-20.552c20.229-12.322,36.558-37.367,36.558-59.438v-3.908h10.489
		c5.541,0,10.033-4.492,10.033-10.033v-19.651c0-1.996-0.59-3.851-1.595-5.414H223.439c-1.005,1.563-1.594,3.418-1.594,5.414v19.651
		C221.844,188.43,226.336,192.921,231.877,192.921z"/>
	<path style="fill:#FED9A8;" d="M242.371,196.988c0,27.287,24.99,59.183,51.41,65.845c17.166,4.328,22.189,4.358,39.37,0.085
		l0.785-0.195c26.512-6.592,51.598-38.533,51.598-65.892v-38.977H242.371V196.988z"/>
</g>
<path style="fill:#F4C892;" d="M339.55,157.855v38.977c0,26.404-23.367,57.068-48.829,65.103c1.017,0.332,2.037,0.641,3.06,0.899
	c17.166,4.328,22.189,4.358,39.37,0.085l0.785-0.195c26.512-6.592,51.598-38.533,51.598-65.892v-38.977L339.55,157.855
	L339.55,157.855z"/>
<path style="fill:#61AFF6;" d="M469.053,315.033l-83.962-29.674c-1.698-0.6-3.589-0.17-4.862,1.105l-5.799,5.808
	c-33.263,33.314-87.693,33.314-120.956,0l-5.799-5.808c-1.273-1.275-3.164-1.705-4.862-1.105l-83.962,29.674
	c-22.315,7.887-37.774,28.355-39.278,52.008l-3.642,83.28c-0.473,7.433,5.419,13.721,12.856,13.721h184.324h1.683h184.324
	c7.436,0,13.328-6.289,12.856-13.721l-3.642-83.28C506.827,343.389,491.369,322.92,469.053,315.033z"/>
<path style="fill:#FFB125;" d="M401.306,138.871h-3.73v-8.151c0-0.652-0.008-1.302-0.025-1.95
	c-0.957-37.714-30.324-67.818-66.435-70.227c-1.556-6.082-7.057-10.585-13.624-10.585h-7.078c-6.567,0-12.068,4.503-13.624,10.585
	c-36.111,2.409-65.478,32.513-66.435,70.227c-0.016,0.648-0.025,1.298-0.025,1.95v8.151h-3.73c-3.463,0-6.269,2.89-6.269,6.454
	v8.378c0,3.564,2.807,6.454,6.27,6.454h174.707c3.463,0,6.269-2.89,6.269-6.454v-8.378
	C407.575,141.761,404.768,138.871,401.306,138.871z"/>
<path style="fill:#55A2F0;" d="M511.973,450.321l-0.372-8.504l0,0l-3.27-74.776c-1.504-23.653-16.963-44.122-39.278-52.008
	l-83.962-29.674c-1.697-0.6-3.589-0.171-4.861,1.103l-5.801,5.81c-1.409,1.411-2.869,2.741-4.351,4.032l52.991,18.728
	c22.315,7.887,37.774,28.355,39.278,52.008l2.238,51.18c0.563,12.861-9.713,23.596-22.586,23.596H116.302l-0.372,8.504
	c-0.473,7.433,5.419,13.721,12.856,13.721H313.11h1.683h138.341h45.984C506.554,464.043,512.446,457.754,511.973,450.321z"/>
<path style="fill:#FFB125;" d="M385.185,285.359c-0.054-0.019-0.11-0.028-0.165-0.045l-0.023,0.045l-7.455,36.588
	c-1.749,8.584-6.933,16.079-14.347,20.744l-49.243,30.985l-49.243-30.985c-7.414-4.665-12.598-12.16-14.347-20.744l-7.455-36.588
	l-0.023-0.045c-0.055,0.017-0.111,0.026-0.165,0.045l-62.557,22.109v156.575h132.855h0.841h0.188h0.841h132.855V307.468
	L385.185,285.359z"/>
<path style="fill:#FF901D;" d="M407.481,144.248c-0.007-0.044-0.011-0.088-0.019-0.131c-0.061-0.333-0.151-0.655-0.26-0.968
	c-0.017-0.05-0.034-0.1-0.053-0.149c-0.117-0.31-0.255-0.608-0.414-0.893c-0.02-0.036-0.042-0.071-0.063-0.107
	c-0.173-0.295-0.364-0.576-0.58-0.838l-0.047-0.053c-0.465-0.531-1.006-0.992-1.604-1.366l0,0c-0.306-0.182-0.627-0.337-0.963-0.465
	c-0.01-0.004-0.02-0.007-0.03-0.011c-0.338-0.127-0.689-0.225-1.052-0.291l0,0l0,0c-0.355-0.064-0.718-0.104-1.09-0.104h-3.73
	v-8.151c0-0.652-0.008-1.302-0.025-1.95c-0.957-37.714-30.324-67.818-66.435-70.227c-1.556-6.082-7.057-10.585-13.624-10.585h-7.078
	c-6.567,0-12.068,4.503-13.624,10.585c-0.278,0.018-0.551,0.054-0.828,0.075c35.728,2.812,64.656,32.728,65.606,70.151
	c0.016,0.648,0.025,1.298,0.025,1.95l0,0c0,4.559-3.696,8.255-8.255,8.255h-127.83c-2.942,0.532-5.179,3.169-5.179,6.35v8.378
	c0,3.564,2.807,6.454,6.27,6.454h134.993h39.714c3.463,0,6.269-2.89,6.269-6.454v-8.378
	C407.575,144.957,407.538,144.599,407.481,144.248z"/>
<path style="fill:#FF6D3A;" d="M317.491,101.422h-7.078c-7.776,0-14.079-6.303-14.079-14.079V62.038
	c0-7.776,6.303-14.079,14.079-14.079h7.078c7.776,0,14.079,6.303,14.079,14.079v25.305
	C331.57,95.119,325.267,101.422,317.491,101.422z"/>
<path style="fill:#ED5729;" d="M317.491,47.959h-3.539v53.463h3.539c7.776,0,14.079-6.303,14.079-14.079V62.038
	C331.57,54.262,325.267,47.959,317.491,47.959z"/>
<path style="fill:#FF901D;" d="M385.185,285.359c-0.054-0.019-0.11-0.028-0.165-0.045l-0.023,0.045l-7.455,36.588
	c-1.749,8.584-6.933,16.079-14.347,20.744l-49.337,31.044v68.082H180.162v22.226H313.11h0.747l0,0h1.029h132.855l0,0v-22.962
	V307.468L385.185,285.359z"/>
<g>
</g>
<g>
</g>
<g>
</g>
<g>
</g>
<g>
</g>
<g>
</g>
<g>
</g>
<g>
</g>
<g>
</g>
<g>
</g>
<g>
</g>
<g>
</g>
<g>
</g>
<g>
</g>
<g>
</g>
</svg>
