<?xml version="1.0" encoding="iso-8859-1"?>
<!-- Generator: Adobe Illustrator 19.0.0, SVG Export Plug-In . SVG Version: 6.00 Build 0)  -->
<svg version="1.1" id="Capa_1" xmlns="http://www.w3.org/2000/svg" xmlns:xlink="http://www.w3.org/1999/xlink" x="0px" y="0px"
	 viewBox="0 0 496 496" style="enable-background:new 0 0 496 496;" xml:space="preserve">
<g>
	<g>
		<g>
			<path d="M248,224c17.648,0,32-14.352,32-32s-14.352-32-32-32s-32,14.352-32,32S230.352,224,248,224z M248,176
				c8.824,0,16,7.176,16,16c0,8.824-7.176,16-16,16c-8.824,0-16-7.176-16-16C232,183.176,239.176,176,248,176z"/>
			<path d="M80,304h84.52l-32.824,56H104c-13.232,0-24,10.768-24,24c0,13.088,10.544,23.728,23.576,23.96l-27.888,47.576
				c-2.416,4.12-3.688,8.816-3.688,13.592C72,483.944,84.056,496,98.872,496H101c9.664,0,18.616-5.224,23.384-13.624L166.528,408
				H224c0,13.232,10.768,24,24,24s24-10.768,24-24h59.072l24.576,42.6c4.296,7.432,11.92,12.296,20.352,13.208V496h16v-34.312
				c9.4-4.168,16-13.552,16-24.48c0-4.856-1.32-9.624-3.824-13.792l-9.416-15.696C406.68,406.336,416,396.288,416,384
				c0-13.232-10.768-24-24-24h-25.872l-33.6-56H416V0H80V304z M96,384c0-4.408,3.592-8,8-8h18.312l-9.376,16H104
				C99.592,392,96,388.408,96,384z M110.464,474.488c-1.928,3.4-5.552,5.512-9.464,5.512h-2.128C92.88,480,88,475.12,88,469.128
				c0-1.936,0.512-3.832,1.496-5.504l17.2-29.336l20.688,10.344L110.464,474.488z M135.28,430.696l-20.48-10.24l101.408-172.984
				c5.776,3.32,12.088,5.808,18.816,7.2L135.28,430.696z M248,144c26.472,0,48,21.528,48,48s-21.528,48-48,48s-48-21.528-48-48
				S221.528,144,248,144z M232,130.104V104c0-4.408,3.592-8,8-8h16c4.408,0,8,3.592,8,8v26.104c-5.128-1.328-10.464-2.104-16-2.104
				S237.128,128.776,232,130.104z M248.064,264.12L261.84,288h-27.312L248.064,264.12z M224,392h-48.408l9.064-16H224V392z M256,408
				c0,4.408-3.592,8-8,8c-4.408,0-8-3.592-8-8v-48c0-4.408,3.592-8,8-8s8,3.592,8,8V408z M248,336c-13.232,0-24,10.768-24,24
				h-30.272l31.736-56h45.608l32.304,56H272C272,346.768,261.232,336,248,336z M272,392v-16h40.608l9.232,16H272z M392,376
				c4.408,0,8,3.592,8,8c0,4.408-3.592,8-8,8h-6.672l-9.6-16H392z M390.464,431.648c1.008,1.68,1.536,3.6,1.536,5.56
				c0,5.952-4.84,10.792-10.792,10.792h-2.352c-3.84,0-7.432-2.072-9.352-5.4L261.072,254.648c6.736-1.4,13.056-3.912,18.84-7.256
				L390.464,431.648z M96,16h304v272h-77.072l-30.192-50.32C304.608,226.056,312,209.888,312,192c0-23.624-12.904-44.256-32-55.344
				V104c0-13.232-10.768-24-24-24h-16c-13.232,0-24,10.768-24,24v32.656c-19.096,11.088-32,31.712-32,55.344
				c0,17.928,7.432,34.128,19.344,45.76L173.896,288H96V16z"/>
			<rect x="112" y="32" width="16" height="16"/>
			<rect x="144" y="32" width="240" height="16"/>
			<rect x="112" y="64" width="88" height="16"/>
			<rect x="296" y="64" width="88" height="16"/>
			<rect x="112" y="96" width="88" height="16"/>
			<rect x="112" y="128" width="88" height="16"/>
			<rect x="112" y="160" width="56" height="16"/>
			<rect x="112" y="192" width="56" height="16"/>
			<rect x="112" y="224" width="56" height="16"/>
			<rect x="112" y="256" width="56" height="16"/>
			<rect x="296" y="96" width="88" height="16"/>
			<rect x="296" y="128" width="56" height="16"/>
			<rect x="368" y="128" width="16" height="16"/>
			<rect x="328" y="160" width="56" height="16"/>
			<rect x="328" y="192" width="56" height="16"/>
			<rect x="328" y="224" width="56" height="16"/>
			<rect x="328" y="256" width="56" height="16"/>
			<path d="M32,64C14.352,64,0,78.352,0,96c0,14.864,10.24,27.288,24,30.864V264h16V126.864c13.76-3.576,24-16,24-30.864
				C64,78.352,49.648,64,32,64z M32,112c-8.824,0-16-7.176-16-16s7.176-16,16-16s16,7.176,16,16S40.824,112,32,112z"/>
			<rect x="48" y="376" width="16" height="96"/>
			<rect x="48" y="344" width="16" height="16"/>
			<rect x="48" y="312" width="16" height="16"/>
			<rect x="48" y="280" width="16" height="16"/>
			<path d="M464,64c-17.648,0-32,14.352-32,32c0,14.864,10.24,27.288,24,30.864V264h16V126.864c13.76-3.576,24-16,24-30.864
				C496,78.352,481.648,64,464,64z M464,112c-8.824,0-16-7.176-16-16s7.176-16,16-16c8.824,0,16,7.176,16,16S472.824,112,464,112z"
				/>
			<rect x="432" y="376" width="16" height="96"/>
			<rect x="432" y="344" width="16" height="16"/>
			<rect x="432" y="312" width="16" height="16"/>
			<rect x="432" y="280" width="16" height="16"/>
		</g>
	</g>
</g>
<g>
</g>
<g>
</g>
<g>
</g>
<g>
</g>
<g>
</g>
<g>
</g>
<g>
</g>
<g>
</g>
<g>
</g>
<g>
</g>
<g>
</g>
<g>
</g>
<g>
</g>
<g>
</g>
<g>
</g>
</svg>
