<?xml version="1.0" encoding="iso-8859-1"?>
<!-- Generator: Adobe Illustrator 19.0.0, SVG Export Plug-In . SVG Version: 6.00 Build 0)  -->
<svg version="1.1" id="Capa_1" xmlns="http://www.w3.org/2000/svg" xmlns:xlink="http://www.w3.org/1999/xlink" x="0px" y="0px"
	 viewBox="0 0 512 512" style="enable-background:new 0 0 512 512;" xml:space="preserve">
<circle style="fill:#E1E1E3;" cx="256" cy="256" r="256"/>
<path style="fill:#AEADB3;" d="M512,256c0-16.856-1.647-33.325-4.756-49.27L382.514,82H129.485v35.574l12.99,13.051v251.28H94.866
	v25.429l96.404,96.404C211.946,509.125,233.637,512,256,512C397.385,512,512,397.385,512,256z"/>
<rect x="142.47" y="114.54" style="fill:#0088FF;" width="227.05" height="272.03"/>
<rect x="256" y="114.53" style="fill:#004EB1;" width="113.53" height="272.03"/>
<rect x="208.41" y="316.61" style="fill:#FEC000;" width="95.18" height="69.96"/>
<rect x="256" y="316.61" style="fill:#FF9A00;" width="47.599" height="69.96"/>
<g>
	<rect x="172.11" y="142.51" style="fill:#FFFFFF;" width="33.01" height="33.01"/>
	<rect x="172.11" y="192.31" style="fill:#FFFFFF;" width="33.01" height="33.01"/>
	<rect x="172.11" y="242.12" style="fill:#FFFFFF;" width="33.01" height="33.01"/>
	<rect x="217.03" y="142.51" style="fill:#FFFFFF;" width="33.01" height="33.01"/>
	<rect x="217.03" y="192.31" style="fill:#FFFFFF;" width="33.01" height="33.01"/>
	<rect x="217.03" y="242.12" style="fill:#FFFFFF;" width="33.01" height="33.01"/>
</g>
<g>
	<rect x="261.96" y="142.51" style="fill:#9CFDFF;" width="33.01" height="33.01"/>
	<rect x="261.96" y="192.31" style="fill:#9CFDFF;" width="33.01" height="33.01"/>
	<rect x="261.96" y="242.12" style="fill:#9CFDFF;" width="33.01" height="33.01"/>
	<rect x="306.88" y="142.51" style="fill:#9CFDFF;" width="33.01" height="33.01"/>
	<rect x="306.88" y="192.31" style="fill:#9CFDFF;" width="33.01" height="33.01"/>
	<rect x="306.88" y="242.12" style="fill:#9CFDFF;" width="33.01" height="33.01"/>
</g>
<rect x="94.87" y="381.9" style="fill:#E02424;" width="322.27" height="25.428"/>
<rect x="256" y="381.9" style="fill:#990011;" width="161.13" height="25.428"/>
<rect x="197.77" y="307.19" style="fill:#FFFFFF;" width="116.47" height="13.185"/>
<rect x="256" y="307.19" style="fill:#9CFDFF;" width="58.24" height="13.185"/>
<rect x="129.49" y="82" style="fill:#FFE670;" width="253.03" height="35.574"/>
<rect x="256" y="82" style="fill:#FEC000;" width="126.51" height="35.574"/>
<g>
</g>
<g>
</g>
<g>
</g>
<g>
</g>
<g>
</g>
<g>
</g>
<g>
</g>
<g>
</g>
<g>
</g>
<g>
</g>
<g>
</g>
<g>
</g>
<g>
</g>
<g>
</g>
<g>
</g>
</svg>
