<?xml version="1.0" encoding="iso-8859-1"?>
<!-- Generator: Adobe Illustrator 19.0.0, SVG Export Plug-In . SVG Version: 6.00 Build 0)  -->
<svg version="1.1" id="Capa_1" xmlns="http://www.w3.org/2000/svg" xmlns:xlink="http://www.w3.org/1999/xlink" x="0px" y="0px"
	 viewBox="0 0 511.999 511.999" style="enable-background:new 0 0 511.999 511.999;" xml:space="preserve">
<polygon style="fill:#E1EFFB;" points="385.058,134.906 255.97,49.036 126.881,134.906 126.881,338.467 385.116,338.467 
	385.116,134.906 "/>
<polygon style="fill:#CCDFED;" points="385.058,134.906 255.97,49.036 224.638,69.878 340.896,147.213 340.954,147.213 
	340.954,338.467 385.116,338.467 385.116,134.906 "/>
<path style="fill:#FF4C4C;" d="M102.741,169.385L253.817,68.888c1.322-0.879,3.043-0.879,4.365,0l151.075,100.497
	c4.254,2.83,9.792,2.83,14.046,0l0,0c7.543-5.018,7.543-16.098,0-21.115L258.182,38.429c-1.322-0.879-3.043-0.879-4.365,0
	L88.695,148.269c-7.543,5.018-7.543,16.098,0,21.115l0,0C92.95,172.215,98.487,172.215,102.741,169.385z"/>
<path style="fill:#FFB125;" d="M294.373,187.083h-76.747c-3.197,0-5.789,2.592-5.789,5.789V338.54h88.325V192.872
	C300.162,189.675,297.57,187.083,294.373,187.083z"/>
<path style="fill:#FF901D;" d="M294.373,187.083H250.21c3.197,0,5.789,2.592,5.789,5.789V338.54h44.163V192.872
	C300.162,189.675,297.57,187.083,294.373,187.083z"/>
<path style="fill:#2D5871;" d="M409.438,319.96H102.56c-6.486,0-11.744,5.258-11.744,11.744l0,0c0,6.486,5.258,11.744,11.744,11.744
	h306.879c6.486,0,11.744-5.258,11.744-11.744l0,0C421.182,325.218,415.924,319.96,409.438,319.96z"/>
<g>
	<path style="fill:#FED9A8;" d="M355.998,453.241l3.11,8.094h-89.439l7.235-78.265c4.584-21.047,19.799-38.186,40.154-45.232
		l42.223-14.616l39.977-41.351c4.126-4.268,10.725-5.296,15.758-2.147c5.616,3.515,7.467,10.75,4.334,16.499l-11,20.186
		l28.293-13.795l27.012-32.562l19.577-43.192c1.37-3.023,5.089-6.291,8.263-7.261l0,0c7.879-2.408,15.223,5.015,12.732,12.868
		l-16.035,50.534c-4.535,14.293-11.872,27.539-21.583,38.965l-15.866,18.669c-10.557,12.422-23.659,22.445-38.46,29.277
		c-16.646,7.684-34.078,17.324-46.319,30.557C352.827,414.669,349.059,435.182,355.998,453.241z"/>
	<path style="fill:#FED9A8;" d="M156,453.241l-3.11,8.094h89.439l-7.235-78.265c-4.584-21.047-19.799-38.186-40.154-45.232
		l-42.223-14.616l-39.977-41.351c-4.126-4.268-10.725-5.296-15.758-2.147c-5.616,3.515-7.467,10.75-4.334,16.499l11,20.186
		l-28.293-13.795l-27.012-32.562L28.766,226.86c-1.37-3.023-5.089-6.291-8.263-7.261l0,0c-7.879-2.408-15.223,5.015-12.732,12.868
		l16.035,50.534c4.535,14.293,11.872,27.539,21.583,38.965l15.866,18.669c10.557,12.422,23.659,22.445,38.46,29.277
		c16.646,7.684,34.078,17.324,46.319,30.557C159.171,414.669,162.939,435.182,156,453.241z"/>
</g>
<g>
	<path style="fill:#F4C892;" d="M235.094,383.069c-4.584-21.047-19.799-38.186-40.154-45.233l-42.223-14.616l-39.972-41.346
		c-3.971-4.108-10.255-5.26-15.237-2.463c-1.989,1.116-3.543,2.683-4.62,4.492c4.576-1.574,9.813-0.292,13.295,3.309l39.977,41.351
		l42.223,25.889c20.355,7.046,7.268,71.579,7.268,71.579l0,0c-2.506,5.091-7.687,8.315-13.361,8.315h-22.875
		c0.059,6.352-1.059,12.763-3.414,18.893l-3.11,8.094h25.384h64.056L235.094,383.069z"/>
	<path style="fill:#F4C892;" d="M493.295,219.221c1.033,2.186,1.311,4.776,0.473,7.417l-16.035,50.534
		c-4.535,14.293-11.872,27.539-21.583,38.965l-15.866,18.669c-10.557,12.422-23.659,22.445-38.46,29.277
		c-10.116,4.67-37.854,14.836-60.808,25.063c-13.815,6.156-24.172,17.61-29.151,31.339c-3.001,8.276-10.761,13.863-19.565,13.863
		h-20.138l-2.495,26.987h38.903h50.536l-3.11-8.094c-0.265-0.69-0.509-1.384-0.743-2.08c-0.064-0.19-0.124-0.38-0.186-0.57
		c-0.181-0.562-0.353-1.126-0.515-1.691c-0.042-0.149-0.087-0.297-0.128-0.446c-0.202-0.732-0.389-1.466-0.558-2.202
		c-0.002-0.009-0.004-0.018-0.006-0.027c-0.168-0.738-0.317-1.478-0.452-2.219c-0.016-0.085-0.031-0.17-0.046-0.255
		c-0.551-3.121-0.811-6.268-0.782-9.401h-0.013c0.102-12.229,4.575-24.241,13.098-33.558c12.21-13.348,29.703-23.059,46.427-30.791
		c14.86-6.87,28.042-16.885,38.644-29.359c5.185-6.102,10.846-12.762,15.872-18.676c9.711-11.426,17.045-24.669,21.581-38.962
		l16.035-50.534C506.528,225.217,500.443,218.339,493.295,219.221z"/>
</g>
<g>
	<path style="fill:#2D5871;" d="M157.966,444.549h84.537c5.129,0,9.287,4.158,9.287,9.287v11.11c0,5.129-4.158,9.287-9.287,9.287
		h-84.537c-5.129,0-9.287-4.158-9.287-9.287v-11.11C148.679,448.707,152.837,444.549,157.966,444.549z"/>
	<path style="fill:#2D5871;" d="M272.349,444.549h84.537c5.129,0,9.287,4.158,9.287,9.287v11.11c0,5.129-4.158,9.287-9.287,9.287
		h-84.537c-5.129,0-9.287-4.158-9.287-9.287v-11.11C263.062,448.707,267.22,444.549,272.349,444.549z"/>
</g>
<path d="M276.99,239.669c-4.024,0-7.287,3.262-7.287,7.287v15.855c0,4.025,3.262,7.287,7.287,7.287c4.024,0,7.287-3.262,7.287-7.287
	v-15.855C284.277,242.931,281.014,239.669,276.99,239.669z"/>
<path d="M506.93,217.059c-4.591-4.642-11.322-6.336-17.564-4.43v0.001c-5.168,1.58-10.539,6.299-12.77,11.221l-19.173,42.301
	l-25.384,30.599l-6.371,3.106l0.082-0.149c4.981-9.143,1.965-20.634-6.868-26.163c-7.839-4.904-18.294-3.532-24.862,3.26
	l-1.617,1.672v-30.332c0-4.025-3.262-7.287-7.287-7.287c-4.024,0-7.287,3.262-7.287,7.287v45.406l-18.486,19.121h-51.895v-119.8
	c0-7.21-5.865-13.076-13.075-13.076h-76.748c-7.21,0-13.075,5.866-13.075,13.076v119.801h-51.895l-18.486-19.121v-45.361
	c0-4.025-3.262-7.287-7.287-7.287s-7.287,3.262-7.287,7.287v30.287l-1.616-1.672c-6.568-6.792-17.023-8.164-24.863-3.259
	c-8.831,5.529-11.848,17.02-6.866,26.162l0.082,0.15l-6.371-3.107l-25.385-30.599l-19.173-42.301
	c-2.231-4.922-7.601-9.642-12.77-11.222c-6.243-1.904-12.973-0.21-17.564,4.43c-4.592,4.641-6.218,11.388-4.244,17.612
	l16.035,50.534c4.854,15.295,12.584,29.251,22.976,41.479l15.865,18.67c11.223,13.205,25.387,23.986,40.958,31.174
	c12.962,5.983,31.627,15.488,44.025,28.889c8.21,8.875,12.265,20.924,11.29,32.984c-6.183,2.408-10.583,8.411-10.583,15.436v11.11
	c0,9.139,7.435,16.574,16.574,16.574h84.537c6.571,0,12.245-3.854,14.923-9.413c2.678,5.558,8.352,9.413,14.923,9.413h84.537
	c9.138,0,16.573-7.435,16.573-16.574v-11.11c0-8.085-5.823-14.826-13.493-16.276c-0.724-11.777,3.328-23.475,11.347-32.144
	c12.398-13.401,31.063-22.906,44.025-28.889c15.571-7.188,29.734-17.967,40.958-31.175l15.865-18.669
	c10.393-12.228,18.123-26.184,22.976-41.479l16.035-50.534C513.148,228.448,511.522,221.7,506.93,217.059z M219.123,194.37h73.751
	v118.303h-73.751V194.37z M211.836,327.247h88.325h25.215l-10.702,3.704c-0.042,0.014-0.083,0.032-0.125,0.047
	c-0.833,0.29-1.657,0.6-2.475,0.922c-0.273,0.107-0.545,0.218-0.817,0.329c-0.631,0.257-1.257,0.524-1.878,0.8
	c-0.262,0.116-0.526,0.228-0.787,0.347c-0.757,0.347-1.507,0.707-2.249,1.081c-0.439,0.22-0.872,0.452-1.306,0.681
	c-0.3,0.159-0.599,0.319-0.896,0.482c-0.323,0.177-0.651,0.341-0.971,0.523h-94.343c-0.318-0.181-0.644-0.344-0.965-0.519
	c-0.302-0.166-0.607-0.329-0.912-0.491c-0.43-0.227-0.858-0.456-1.292-0.674c-0.746-0.375-1.499-0.737-2.259-1.086
	c-0.253-0.116-0.508-0.224-0.762-0.336c-0.634-0.281-1.273-0.553-1.917-0.816c-0.26-0.106-0.519-0.211-0.78-0.314
	c-0.865-0.34-1.735-0.669-2.617-0.974l-10.702-3.705L211.836,327.247L211.836,327.247z M151.382,395.521
	c-14.158-15.305-34.526-25.721-48.614-32.225c-13.663-6.307-26.099-15.775-35.962-27.38l-15.865-18.669
	c-9.132-10.746-15.925-23.009-20.19-36.45l-16.035-50.534c-0.467-1.472,0.245-2.482,0.712-2.954c0.466-0.471,1.468-1.19,2.944-0.743
	c1.177,0.361,3.249,2.18,3.757,3.302l19.577,43.192c0.268,0.591,0.614,1.144,1.029,1.644l27.012,32.561
	c0.661,0.796,1.484,1.443,2.415,1.897l26.721,13.029l19.326,25.642c1.432,1.901,3.615,2.901,5.825,2.901
	c1.527,0,3.067-0.478,4.38-1.468c3.214-2.422,3.855-6.991,1.433-10.204l-20.054-26.608l-10.746-19.72
	c-1.301-2.386-0.509-5.389,1.8-6.834c2.043-1.277,4.84-0.843,6.654,1.034l39.977,41.351c0.191,0.197,0.394,0.382,0.604,0.556
	c0.009,0.007,0.016,0.016,0.025,0.023c0.062,0.051,0.132,0.093,0.196,0.142c0.614,0.469,1.295,0.847,2.03,1.101l42.225,14.617
	c0.039,0.013,0.076,0.03,0.115,0.043c0.981,0.342,1.948,0.716,2.902,1.112c0.309,0.128,0.613,0.27,0.92,0.404
	c0.707,0.309,1.409,0.627,2.1,0.966c0.291,0.142,0.58,0.291,0.869,0.438c0.76,0.389,1.511,0.792,2.25,1.216
	c0.172,0.098,0.344,0.195,0.514,0.294c12.85,7.56,22.315,20.249,25.653,35l4.905,53.064h-66.137
	C167.271,421.953,161.838,406.823,151.382,395.521z M244.502,464.946c0,1.103-0.897,2-2,2h-84.537c-1.103,0-2-0.898-2-2v-11.11
	c0-1.103,0.897-2,2-2h0.521h82.29h1.725c1.103,0,2,0.898,2,2L244.502,464.946L244.502,464.946z M269.648,382.399l-5.26,56.908
	c-3.023,1.663-5.459,4.249-6.962,7.368c-1.97-4.088-5.553-7.255-9.933-8.641l-5.143-55.635c-0.028-0.296-0.073-0.589-0.136-0.88
	c-2.513-11.54-7.984-22.102-15.595-30.784h58.761c-7.612,8.682-13.082,19.244-15.595,30.784
	C269.721,381.81,269.676,382.103,269.648,382.399z M358.885,464.946c0,1.103-0.897,2-2,2h-84.536c-1.103,0-2-0.898-2-2v-11.11
	c0-1.103,0.897-2,2-2h81.162h3.375c1.103,0,2,0.898,2,2v11.11H358.885z M497.282,230.263l-16.035,50.534
	c-4.264,13.441-11.057,25.704-20.19,36.45l-15.865,18.668c-9.863,11.606-22.298,21.074-35.962,27.381
	c-14.089,6.504-34.457,16.92-48.614,32.225c-10.456,11.302-15.889,26.432-15.267,41.742h-66.137l4.905-53.064
	c3.338-14.752,12.805-27.443,25.657-35.002c0.168-0.098,0.337-0.193,0.506-0.29c0.742-0.426,1.497-0.831,2.26-1.222
	c0.286-0.146,0.571-0.292,0.859-0.433c0.697-0.342,1.406-0.663,2.12-0.975c0.3-0.131,0.597-0.269,0.899-0.395
	c0.995-0.413,2.001-0.805,3.025-1.159l42.224-14.616c0.707-0.244,1.362-0.605,1.958-1.049c0.316-0.235,0.621-0.487,0.897-0.772
	l39.977-41.351c1.814-1.876,4.611-2.314,6.652-1.035c2.311,1.446,3.103,4.449,1.802,6.835l-10.735,19.7l-20.068,26.628
	c-2.422,3.214-1.78,7.782,1.433,10.204c1.314,0.991,2.853,1.468,4.38,1.468c2.21,0,4.392-1.001,5.825-2.901l19.323-25.639
	l26.728-13.032c0.93-0.454,1.753-1.101,2.415-1.897l27.012-32.562c0.415-0.499,0.76-1.052,1.029-1.643l19.577-43.193
	c0.508-1.121,2.579-2.94,3.756-3.3c1.476-0.454,2.478,0.271,2.944,0.742C497.037,227.781,497.749,228.791,497.282,230.263z"/>
<path d="M84.659,175.451c3.359,2.235,7.209,3.352,11.059,3.352s7.7-1.117,11.058-3.352l12.818-8.526v35.874
	c0,4.025,3.262,7.287,7.287,7.287c4.025,0,7.287-3.262,7.287-7.287v-45.568l121.831-81.042l121.831,81.042v45.641
	c0,4.025,3.262,7.287,7.287,7.287c4.024,0,7.287-3.262,7.287-7.287v-35.947l12.817,8.526c6.718,4.471,15.4,4.47,22.118,0
	c5.578-3.71,8.908-9.924,8.908-16.623s-3.329-12.915-8.908-16.626L262.217,32.362c-3.776-2.514-8.659-2.514-12.436,0L84.659,142.203
	c-5.578,3.711-8.908,9.926-8.907,16.626C75.752,165.528,79.082,171.742,84.659,175.451z M92.731,154.336L255.999,45.729
	l163.268,108.607c2.172,1.445,2.406,3.623,2.406,4.492s-0.234,3.046-2.407,4.491c-1.814,1.207-4.159,1.207-5.974,0l-24.139-16.058
	l-0.001-0.001L262.217,62.822c-3.062-2.039-6.851-2.424-10.19-1.156c-0.778,0.296-1.532,0.68-2.247,1.156L122.845,147.26
	c0,0-0.001,0.001-0.002,0.001l-24.138,16.057l0,0c-1.815,1.208-4.159,1.207-5.974,0c-2.171-1.445-2.406-3.622-2.406-4.491
	C90.325,157.958,90.559,155.781,92.731,154.336z"/>
<g>
</g>
<g>
</g>
<g>
</g>
<g>
</g>
<g>
</g>
<g>
</g>
<g>
</g>
<g>
</g>
<g>
</g>
<g>
</g>
<g>
</g>
<g>
</g>
<g>
</g>
<g>
</g>
<g>
</g>
</svg>
