<?xml version="1.0" encoding="iso-8859-1"?>
<!-- Generator: Adobe Illustrator 19.0.0, SVG Export Plug-In . SVG Version: 6.00 Build 0)  -->
<svg version="1.1" id="Capa_1" xmlns="http://www.w3.org/2000/svg" xmlns:xlink="http://www.w3.org/1999/xlink" x="0px" y="0px"
	 viewBox="0 0 512 512" style="enable-background:new 0 0 512 512;" xml:space="preserve">
<circle style="fill:#0088FF;" cx="256" cy="256" r="256"/>
<path style="fill:#004EB1;" d="M512,256c0-2.172-0.028-4.337-0.082-6.496l-84.935-84.935h-10.485l-73.911-75.067H169.421v75.067
	H85.024v204.609H66.536V393.5L170.33,497.294C197.118,506.806,225.95,512,256,512C397.385,512,512,397.385,512,256z"/>
<rect x="85.02" y="164.57" style="fill:#E02424;" width="127.42" height="209.07"/>
<rect x="148.73" y="164.57" style="fill:#990011;" width="63.708" height="209.07"/>
<rect x="132.91" y="325.62" style="fill:#00E8F2;" width="31.644" height="48.02"/>
<rect x="148.73" y="325.62" style="fill:#00B7BE;" width="15.821" height="48.02"/>
<g>
	<rect x="103.43" y="196.59" style="fill:#9CFDFF;" width="24.343" height="24.343"/>
	<rect x="136.56" y="196.59" style="fill:#9CFDFF;" width="24.343" height="24.343"/>
</g>
<g>
	<rect x="148.73" y="196.59" style="fill:#00B7BE;" width="12.171" height="24.343"/>
	<rect x="169.69" y="196.59" style="fill:#00B7BE;" width="24.343" height="24.343"/>
</g>
<g>
	<rect x="103.43" y="234.43" style="fill:#9CFDFF;" width="24.343" height="24.343"/>
	<rect x="136.56" y="234.43" style="fill:#9CFDFF;" width="24.343" height="24.343"/>
</g>
<g>
	<rect x="148.73" y="234.43" style="fill:#00B7BE;" width="12.171" height="24.343"/>
	<rect x="169.69" y="234.43" style="fill:#00B7BE;" width="24.343" height="24.343"/>
</g>
<g>
	<rect x="103.43" y="272.27" style="fill:#9CFDFF;" width="24.343" height="24.343"/>
	<rect x="136.56" y="272.27" style="fill:#9CFDFF;" width="24.343" height="24.343"/>
</g>
<g>
	<rect x="148.73" y="272.27" style="fill:#00B7BE;" width="12.171" height="24.343"/>
	<rect x="169.69" y="272.27" style="fill:#00B7BE;" width="24.343" height="24.343"/>
</g>
<rect x="299.57" y="164.57" style="fill:#00E8F2;" width="127.42" height="209.07"/>
<rect x="363.27" y="164.57" style="fill:#00B7BE;" width="63.708" height="209.07"/>
<rect x="347.45" y="325.62" style="fill:#E02424;" width="31.645" height="48.02"/>
<rect x="363.27" y="325.62" style="fill:#990011;" width="15.821" height="48.02"/>
<rect x="317.97" y="196.59" style="fill:#9CFDFF;" width="24.343" height="24.343"/>
<rect x="351.1" y="196.59" style="fill:#00B7BE;" width="24.343" height="24.343"/>
<g>
	<rect x="363.27" y="196.59" style="fill:#00777B;" width="12.171" height="24.343"/>
	<rect x="384.24" y="196.59" style="fill:#00777B;" width="24.343" height="24.343"/>
</g>
<rect x="317.97" y="234.43" style="fill:#9CFDFF;" width="24.343" height="24.343"/>
<rect x="351.1" y="234.43" style="fill:#00B7BE;" width="24.343" height="24.343"/>
<g>
	<rect x="363.27" y="234.43" style="fill:#00777B;" width="12.171" height="24.343"/>
	<rect x="384.24" y="234.43" style="fill:#00777B;" width="24.343" height="24.343"/>
</g>
<rect x="317.97" y="272.27" style="fill:#9CFDFF;" width="24.343" height="24.343"/>
<rect x="351.1" y="272.27" style="fill:#00B7BE;" width="24.343" height="24.343"/>
<g>
	<rect x="363.27" y="272.27" style="fill:#00777B;" width="12.171" height="24.343"/>
	<rect x="384.24" y="272.27" style="fill:#00777B;" width="24.343" height="24.343"/>
</g>
<rect x="169.42" y="89.5" style="fill:#FFE670;" width="173.17" height="284.13"/>
<rect x="256" y="89.5" style="fill:#FEC000;" width="86.58" height="284.14"/>
<rect x="213.54" y="306.72" style="fill:#E02424;" width="84.92" height="66.915"/>
<rect x="256" y="306.72" style="fill:#990011;" width="42.468" height="66.915"/>
<g>
	<rect x="194.43" y="133.02" style="fill:#00B7BE;" width="33.08" height="33.08"/>
	<rect x="239.46" y="133.02" style="fill:#00B7BE;" width="33.08" height="33.08"/>
</g>
<g>
	<rect x="256" y="133.02" style="fill:#00777B;" width="16.542" height="33.08"/>
	<rect x="284.49" y="133.02" style="fill:#00777B;" width="33.08" height="33.08"/>
</g>
<g>
	<rect x="194.43" y="184.45" style="fill:#00B7BE;" width="33.08" height="33.08"/>
	<rect x="239.46" y="184.45" style="fill:#00B7BE;" width="33.08" height="33.08"/>
</g>
<g>
	<rect x="256" y="184.45" style="fill:#00777B;" width="16.542" height="33.08"/>
	<rect x="284.49" y="184.45" style="fill:#00777B;" width="33.08" height="33.08"/>
</g>
<g>
	<rect x="194.43" y="235.88" style="fill:#00B7BE;" width="33.08" height="33.08"/>
	<rect x="239.46" y="235.88" style="fill:#00B7BE;" width="33.08" height="33.08"/>
</g>
<g>
	<rect x="256" y="235.88" style="fill:#00777B;" width="16.542" height="33.08"/>
	<rect x="284.49" y="235.88" style="fill:#00777B;" width="33.08" height="33.08"/>
</g>
<rect x="66.54" y="369.18" style="fill:#FFFFFF;" width="378.93" height="24.322"/>
<rect x="256" y="369.18" style="fill:#9CFDFF;" width="189.46" height="24.322"/>
<rect x="200.3" y="297.71" style="fill:#FFFFFF;" width="111.4" height="12.611"/>
<rect x="256" y="297.71" style="fill:#9CFDFF;" width="55.703" height="12.611"/>
<g>
</g>
<g>
</g>
<g>
</g>
<g>
</g>
<g>
</g>
<g>
</g>
<g>
</g>
<g>
</g>
<g>
</g>
<g>
</g>
<g>
</g>
<g>
</g>
<g>
</g>
<g>
</g>
<g>
</g>
</svg>
