<?xml version="1.0" encoding="iso-8859-1"?>
<!-- Generator: Adobe Illustrator 19.0.0, SVG Export Plug-In . SVG Version: 6.00 Build 0)  -->
<svg version="1.1" id="Capa_1" xmlns="http://www.w3.org/2000/svg" xmlns:xlink="http://www.w3.org/1999/xlink" x="0px" y="0px"
	 viewBox="0 0 496 496" style="enable-background:new 0 0 496 496;" xml:space="preserve">
<g>
	<g>
		<g>
			<path d="M496,160c0-70.576-57.424-128-128-128c-30.648,0-58.792,10.848-80.848,28.872l-42.296-42.296l-27.208,27.208
				c-5.648-2.848-11.544-5.28-17.64-7.28V0H120v38.504c-6.096,2-11.992,4.432-17.64,7.28L75.152,18.576L18.584,75.144l27.208,27.208
				c-2.848,5.648-5.28,11.544-7.28,17.64H0v80h38.504c2,6.096,4.432,11.992,7.28,17.64L18.576,244.84l56.568,56.568l27.208-27.208
				c5.648,2.848,11.544,5.28,17.64,7.28V320h80v-38.504c6.096-2,11.992-4.432,17.64-7.28l27.208,27.208l42.296-42.296
				c12,9.808,25.824,17.424,40.848,22.384V304h-16v16h16v16h-16v16h16v104c0,22.056,17.944,40,40,40c22.056,0,40-17.944,40-40V352
				h16v-16h-16v-16h16v-16h-16v-22.488C459.032,264.664,496,216.6,496,160z M244.856,278.792l-24.4-24.4l-5.304,3.016
				c-7.84,4.456-16.352,7.968-25.28,10.44L184,269.472V304h-48v-34.528l-5.864-1.624c-8.928-2.472-17.44-5.984-25.28-10.44
				l-5.304-3.016l-24.4,24.408L41.2,244.848l24.408-24.4l-3.016-5.304c-4.456-7.84-7.968-16.352-10.44-25.28L50.528,184H16v-48
				h34.528l1.624-5.864c2.472-8.928,5.984-17.44,10.44-25.28l3.016-5.304L41.2,75.152l33.944-33.944l24.4,24.408l5.304-3.016
				c7.84-4.456,16.352-7.968,25.28-10.44L136,50.528V16h48v34.528l5.864,1.624c8.928,2.472,17.44,5.984,25.28,10.44l5.304,3.016
				l24.4-24.408l30.608,30.608C253.552,94.792,240,125.816,240,160s13.552,65.208,35.464,88.184L244.856,278.792z M392,456
				c0,13.232-10.768,24-24,24s-24-10.768-24-24V352h48V456z M392,336h-48v-16h48V336z M392,304h-48v-18.336
				c7.784,1.488,15.792,2.336,24,2.336s16.216-0.848,24-2.336V304z M368,272c-61.76,0-112-50.24-112-112S306.24,48,368,48
				s112,50.24,112,112S429.76,272,368,272z"/>
			<path d="M368,80c-44.112,0-80,35.888-80,80s35.888,80,80,80s80-35.888,80-80S412.112,80,368,80z M368,224
				c-35.288,0-64-28.712-64-64c0-35.288,28.712-64,64-64c35.288,0,64,28.712,64,64C432,195.288,403.288,224,368,224z"/>
			<path d="M160,96c-35.288,0-64,28.712-64,64c0,35.288,28.712,64,64,64c35.288,0,64-28.712,64-64C224,124.712,195.288,96,160,96z
				 M160,112c17.72,0,33.192,9.68,41.504,24h-83.008C126.808,121.68,142.28,112,160,112z M160,208c-17.72,0-33.192-9.68-41.504-24
				h83.008C193.192,198.32,177.72,208,160,208z M208,160c0,2.728-0.28,5.392-0.72,8h-94.56c-0.44-2.608-0.72-5.272-0.72-8
				c0-2.728,0.28-5.392,0.72-8h94.56C207.72,154.608,208,157.272,208,160z"/>
			<path d="M280,344c-13.232,0-24,10.768-24,24c0,6.096,2.36,11.608,6.12,15.848l-19.56,26.08C239.232,408.76,235.72,408,232,408
				c-8.104,0-15.424,3.12-21.064,8.096l-30.264-24.216c2.12-4.872,3.328-10.232,3.328-15.88c0-22.056-17.944-40-40-40
				c-22.056,0-40,17.944-40,40c0,5.648,1.208,11.008,3.328,15.888L80.832,413.08C72.24,405,60.704,400,48,400
				c-26.472,0-48,21.528-48,48s21.528,48,48,48s48-21.528,48-48c0-8-1.992-15.536-5.472-22.176l26.056-20.848
				C123.76,411.768,133.376,416,144,416c10.624,0,20.24-4.232,27.408-11.024l30.528,24.424C200.76,432.736,200,436.264,200,440
				c0,17.648,14.352,32,32,32s32-14.352,32-32c0-8.128-3.144-15.48-8.152-21.128l20.432-27.248c1.216,0.192,2.448,0.376,3.72,0.376
				c13.232,0,24-10.768,24-24S293.232,344,280,344z M48,480c-17.648,0-32-14.352-32-32s14.352-32,32-32s32,14.352,32,32
				S65.648,480,48,480z M144,400c-13.232,0-24-10.768-24-24s10.768-24,24-24s24,10.768,24,24S157.232,400,144,400z M232,456
				c-8.824,0-16-7.176-16-16c0-8.824,7.176-16,16-16c8.824,0,16,7.176,16,16C248,448.824,240.824,456,232,456z M280,376
				c-4.416,0-8-3.584-8-8c0-4.416,3.584-8,8-8c4.416,0,8,3.584,8,8C288,372.416,284.416,376,280,376z"/>
		</g>
	</g>
</g>
<g>
</g>
<g>
</g>
<g>
</g>
<g>
</g>
<g>
</g>
<g>
</g>
<g>
</g>
<g>
</g>
<g>
</g>
<g>
</g>
<g>
</g>
<g>
</g>
<g>
</g>
<g>
</g>
<g>
</g>
</svg>
