<?xml version="1.0" encoding="iso-8859-1"?>
<!-- Generator: Adobe Illustrator 19.0.0, SVG Export Plug-In . SVG Version: 6.00 Build 0)  -->
<svg version="1.1" id="Capa_1" xmlns="http://www.w3.org/2000/svg" xmlns:xlink="http://www.w3.org/1999/xlink" x="0px" y="0px"
	 viewBox="0 0 496 496" style="enable-background:new 0 0 496 496;" xml:space="preserve">
<path style="fill:#FFA64D;" d="M208,448h-58.936l4.904-11.2c4-9.16,6.032-18.848,6.032-28.8v-56h8c35.288,0,64-28.712,64-64
	s-28.712-64-64-64h-8v-96h48v38.504c6.096,2,11.992,4.432,17.64,7.28l27.208-27.208l56.568,56.568l-27.208,27.208
	c2.848,5.648,5.28,11.544,7.28,17.64H328v80h-38.504c-2,6.096-4.432,11.992-7.28,17.64l27.208,27.208l-56.568,56.568L225.648,402.2
	c-5.648,2.848-11.544,5.28-17.64,7.28V448H208z"/>
<g>
	<path style="fill:#333333;" d="M135.56,437.568c5.52-8.856,8.44-19.08,8.44-29.568c0-30.88-25.12-56-56-56s-56,25.12-56,56
		s25.12,56,56,56c13.44,0,26.44-4.832,36.6-13.616l-10.464-12.112C106.888,444.544,97.6,448,88,448c-22.056,0-40-17.944-40-40
		s17.944-40,40-40s40,17.944,40,40c0,7.496-2.08,14.792-6.016,21.112L135.56,437.568z"/>
	<path style="fill:#333333;" d="M64,408c0,13.232,10.768,24,24,24s24-10.768,24-24s-10.768-24-24-24S64,394.768,64,408z M96,408
		c0,4.408-3.592,8-8,8s-8-3.592-8-8s3.592-8,8-8S96,403.592,96,408z"/>
	<path style="fill:#333333;" d="M175.592,80C171.536,35.216,133.824,0,88,0C39.48,0,0,39.48,0,88v320c0,48.52,39.48,88,88,88h408V80
		H175.592z M16,88c0-39.696,32.304-72,72-72s72,32.304,72,72v269.56C144.064,334.888,117.76,320,88,320s-56.064,14.888-72,37.56V88z
		 M16,408c0-39.696,32.304-72,72-72s72,32.304,72,72s-32.304,72-72,72S16,447.696,16,408z M480,480H138.44
		c22.672-15.936,37.56-42.24,37.56-72V96h304V480z"/>
	<path style="fill:#333333;" d="M464,464v-96H336v96H464z M352,416h40v32h-40V416z M408,448v-32h40v32H408z M448,384v16h-96v-16H448
		z"/>
	<rect x="432" y="248" style="fill:#333333;" width="16" height="16"/>
	<rect x="432" y="152" style="fill:#333333;" width="16" height="80"/>
	<rect x="352" y="152" style="fill:#333333;" width="16" height="112"/>
	<rect x="392" y="152" style="fill:#333333;" width="16" height="112"/>
	<rect x="32" y="288" style="fill:#333333;" width="16" height="16"/>
	<rect x="32" y="96" style="fill:#333333;" width="16" height="176"/>
</g>
<g>
	<path style="fill:#FFA64D;" d="M440,160c-13.232,0-24-10.768-24-24s10.768-24,24-24s24,10.768,24,24S453.232,160,440,160z"/>
	<path style="fill:#FFA64D;" d="M360,160c-13.232,0-24-10.768-24-24s10.768-24,24-24s24,10.768,24,24S373.232,160,360,160z"/>
	<path style="fill:#FFA64D;" d="M400,304c-13.232,0-24-10.768-24-24s10.768-24,24-24s24,10.768,24,24S413.232,304,400,304z"/>
</g>
<g>
</g>
<g>
</g>
<g>
</g>
<g>
</g>
<g>
</g>
<g>
</g>
<g>
</g>
<g>
</g>
<g>
</g>
<g>
</g>
<g>
</g>
<g>
</g>
<g>
</g>
<g>
</g>
<g>
</g>
</svg>
